# xmcd
#
# Track frame offsets:
#	150
#	17494
#	33069
#	50551
#	70155
#	85102
#	102496
#	116029
#	128672
#	144413
#	167395
#	181240
#	196944
#	209138
#	228480
#	248136
#
# Disc length: 3498 seconds
#
# Revision: 0
# Processed by: cddbd v1.5.2PL0 Copyright (c) Steve Scherf et al.
# Submitted via: audiograbber 1.83.01
#
DISCID=d50da810
DTITLE=Mary Petttit - Flyaway With Mary Petttit
DYEAR=2013
DGENRE=Country
TTITLE0=Dont Let Me Cross Over
TTITLE1=Monkey Is Moon
TTITLE2=Fly Away
TTITLE3=Second Chance
TTITLE4=Dunstan
TTITLE5=This Be The Place
TTITLE6=Tom Toms
TTITLE7=Shores Of Waitaki
TTITLE8=On A Mission
TTITLE9=Ill Take You Home
TTITLE10=Naked Moon
TTITLE11=Somethings Calling
TTITLE12=Blue Shirts
TTITLE13=Hole In My Heart
TTITLE14=Docs Creek
TTITLE15=Isa Lei
EXTD=
EXTT0=
EXTT1=
EXTT2=
EXTT3=
EXTT4=
EXTT5=
EXTT6=
EXTT7=
EXTT8=
EXTT9=
EXTT10=
EXTT11=
EXTT12=
EXTT13=
EXTT14=
EXTT15=
PLAYORDER=
